<?xml version="1.0"?>
<svg xmlns="http://www.w3.org/2000/svg" height="512px" viewBox="0 0 480 480" width="512px"><path d="m16.96875 176c4.503906 0 8.816406-1.792969 12-4.96875l51.894531-51.894531c2.328125.519531 4.695313.863281 7.136719.863281 3.046875 0 5.976562-.566406 8.832031-1.382812l63.886719 70.277343c6.058594-11.117187 16.753906-18.589843 29.074219-20.421875l-71.410157-70.871094c.96875-3.082031 1.617188-6.273437 1.617188-9.601562 0-6.742188-2.144531-13.128906-5.984375-18.503906l21.984375-5.496094 35.03125-35.03125c3.175781-3.183594 4.96875-7.496094 4.96875-12 0-9.367188-7.601562-16.96875-16.96875-16.96875-4.503906 0-8.816406 1.785156-12 4.96875l-51.894531 51.894531c-2.328125-.519531-4.695313-.863281-7.136719-.863281-8.542969 0-16.585938 3.335938-22.625 9.375-6.046875 6.039062-9.375 14.082031-9.375 22.625 0 6.742188 2.144531 13.128906 5.984375 18.503906l-21.984375 5.496094-35.03125 35.03125c-3.175781 3.175781-4.96875 7.496094-4.96875 12 0 9.367188 7.601562 16.96875 16.96875 16.96875zm59.71875-99.3125c3.023438-3.023438 7.039062-4.6875 11.3125-4.6875s8.289062 1.664062 11.3125 4.6875 4.6875 7.039062 4.6875 11.3125-1.664062 8.289062-4.6875 11.3125c-6.046875 6.046875-16.578125 6.046875-22.625 0-3.023438-3.023438-4.6875-7.039062-4.6875-11.3125s1.664062-8.289062 4.6875-11.3125zm0 0" fill="#2196f3"/><path d="m463.03125 304c-4.503906 0-8.816406 1.785156-12 4.96875l-51.894531 51.894531c-2.328125-.519531-4.695313-.863281-7.136719-.863281-3.351562 0-6.566406.65625-9.671875 1.640625l-59.871094-59.871094c-5.289062 4.703125-11.753906 8.101563-18.976562 9.46875-.726563 5.585938-2.273438 10.90625-4.519531 15.859375l62.398437 56.160156c-.808594 2.820313-1.359375 5.726563-1.359375 8.742188 0 6.742188 2.144531 13.128906 5.984375 18.503906l-21.984375 5.496094-35.03125 35.03125c-3.175781 3.175781-4.96875 7.496094-4.96875 12 0 9.367188 7.601562 16.96875 16.96875 16.96875 4.503906 0 8.816406-1.792969 12-4.96875l51.894531-51.894531c2.328125.519531 4.695313.863281 7.136719.863281 8.542969 0 16.585938-3.335938 22.625-9.375 6.046875-6.039062 9.375-14.082031 9.375-22.625 0-6.742188-2.144531-13.128906-5.984375-18.503906l21.984375-5.496094 35.03125-35.03125c3.183594-3.183594 4.96875-7.496094 4.96875-12 0-9.367188-7.601562-16.96875-16.96875-16.96875zm-59.71875 99.3125c-6.046875 6.046875-16.578125 6.046875-22.625 0-3.023438-3.023438-4.6875-7.039062-4.6875-11.3125s1.664062-8.289062 4.6875-11.3125 7.039062-4.6875 11.3125-4.6875 8.289062 1.664062 11.3125 4.6875 4.6875 7.039062 4.6875 11.3125-1.664062 8.289062-4.6875 11.3125zm0 0" fill="#2196f3"/><path d="m176.519531 311.246094c-7.230469-1.375-13.6875-4.765625-18.976562-9.46875l-59.871094 59.871094c-3.105469-.992188-6.320313-1.648438-9.671875-1.648438-6.742188 0-13.128906 2.144531-18.503906 5.984375l-5.496094-21.984375-35.03125-35.03125c-3.175781-3.183594-7.496094-4.96875-12-4.96875-9.367188 0-16.96875 7.601562-16.96875 16.96875 0 4.503906 1.792969 8.816406 4.96875 12l51.894531 51.894531c-.519531 2.328125-.863281 4.695313-.863281 7.136719 0 8.542969 3.328125 16.585938 9.375 22.625 6.039062 6.039062 14.082031 9.375 22.625 9.375 6.742188 0 13.128906-2.144531 18.503906-5.984375l5.496094 21.984375 35.03125 35.03125c3.183594 3.183594 7.496094 4.96875 12 4.96875 9.367188 0 16.96875-7.601562 16.96875-16.96875 0-4.503906-1.792969-8.816406-4.96875-12l-51.894531-51.894531c.519531-2.328125.863281-4.695313.863281-7.136719 0-3.015625-.550781-5.921875-1.359375-8.742188l62.398437-56.160156c-2.246093-4.945312-3.792968-10.265625-4.519531-15.851562zm-99.832031 92.066406c-3.023438-3.023438-4.6875-7.039062-4.6875-11.3125s1.664062-8.289062 4.6875-11.3125 7.039062-4.6875 11.3125-4.6875 8.289062 1.664062 11.3125 4.6875 4.6875 7.039062 4.6875 11.3125-1.664062 8.289062-4.6875 11.3125c-6.046875 6.046875-16.578125 6.046875-22.625 0zm0 0" fill="#2196f3"/><path d="m319.28125 188.894531 63.886719-70.277343c2.855469.816406 5.785156 1.382812 8.832031 1.382812 6.742188 0 13.128906-2.144531 18.503906-5.984375l5.496094 21.984375 35.03125 35.03125c3.183594 3.183594 7.496094 4.96875 12 4.96875 9.367188 0 16.96875-7.601562 16.96875-16.96875 0-4.503906-1.792969-8.816406-4.96875-12l-51.894531-51.894531c.519531-2.328125.863281-4.695313.863281-7.136719 0-8.542969-3.328125-16.585938-9.375-22.625-6.039062-6.039062-14.082031-9.375-22.625-9.375-6.742188 0-13.128906 2.144531-18.503906 5.984375l-5.496094-21.984375-35.03125-35.03125c-3.175781-3.183594-7.496094-4.96875-12-4.96875-9.367188 0-16.96875 7.601562-16.96875 16.96875 0 4.503906 1.792969 8.816406 4.96875 12l51.894531 51.894531c-.519531 2.328125-.863281 4.695313-.863281 7.136719 0 3.328125.648438 6.519531 1.617188 9.601562l-71.410157 70.863282c12.320313 1.839844 23.015625 9.304687 29.074219 20.429687zm72.71875-116.894531c4.273438 0 8.289062 1.664062 11.3125 4.6875s4.6875 7.039062 4.6875 11.3125-1.664062 8.289062-4.6875 11.3125c-6.046875 6.046875-16.578125 6.046875-22.625 0-3.023438-3.023438-4.6875-7.039062-4.6875-11.3125s1.664062-8.289062 4.6875-11.3125 7.039062-4.6875 11.3125-4.6875zm0 0" fill="#2196f3"/><path d="m320 272v-40h-16v-16h11.054688l-9.375-18.734375c-4.085938-8.1875-12.304688-13.265625-21.457032-13.265625h-88.445312c-9.152344 0-17.371094 5.078125-21.464844 13.265625l-9.367188 18.734375h11.054688v16h-16v40c0 13.230469 10.769531 24 24 24h24c0-17.648438 14.351562-32 32-32s32 14.351562 32 32h24c13.230469 0 24-10.769531 24-24zm-32-40h-96v-16h96zm0 0" fill="#2196f3"/><path d="m240 280c-8.824219 0-16 7.175781-16 16h32c0-8.824219-7.175781-16-16-16zm0 0" fill="#2196f3"/><path d="m232 344h16c19.3125 0 35.472656-13.769531 39.191406-32h-94.382812c3.71875 18.230469 19.878906 32 39.191406 32zm0 0" fill="#2196f3"/></svg>
