<?xml version="1.0" encoding="utf-8"?>
<!-- Svg Vector Icons : http://www.onlinewebfonts.com/icon -->
<!DOCTYPE svg PUBLIC "-//W3C//DTD SVG 1.1//EN" "http://www.w3.org/Graphics/SVG/1.1/DTD/svg11.dtd">
<svg version="1.1" xmlns="http://www.w3.org/2000/svg" xmlns:xlink="http://www.w3.org/1999/xlink" x="0px" y="0px" viewBox="0 0 1000 1000" enable-background="new 0 0 1000 1000" xml:space="preserve">
<metadata> Svg Vector Icons : http://www.onlinewebfonts.com/icon </metadata>
<g><g transform="translate(0.000000,338.000000) scale(0.100000,-0.100000)"><path d="M2478.9,941.6C1803,869.5,1168.4,555.3,756.1,86.3C412.8-306.1,202.8-753.6,120-1273.2c-29.1-182.4-26-626.9,6.1-804.7c96.6-530.3,320.3-953.4,708.1-1341.2c403.1-403.1,872.1-640.7,1456.1-737.2c237.6-39.9,774-39.9,1011.6,0c568.6,95,1031.5,326.5,1410.1,706.6c85.8,84.3,185.5,194.7,223.8,245.2c79.7,104.2,329.5,562.5,803.2,1479.1c386.3,746.5,551.8,956.4,872.1,1111.2c216.1,104.2,574.8,154.8,820,116.5c351-55.2,675.9-265.2,841.5-542.6c268.2-449.1,170.1-1065.3-228.4-1425.5c-113.4-104.2-349.5-225.3-519.6-266.7c-162.5-39.8-651.4-39.8-797,0c-226.8,61.3-306.6,115-594.7,401.6l-263.6,262.1l-337.2-665.2c-185.5-366.3-337.2-671.3-337.2-677.5c0-13.8,358.7-282,502.7-375.5c217.7-139.5,544.1-274.4,815.4-335.7c288.1-65.9,712.7-88.9,1023.9-53.7c675.9,73.6,1226.2,337.2,1666.1,797c325,341.8,534.9,721.9,634.6,1151.1c101.2,430.7,78.2,951.8-61.3,1381C9715-654,9538.8-307.6,9414.6-131.3c-133.4,187-400,453.7-587,587C8547.1,655,8159.3,822,7806.8,894.1c-744.9,154.8-1572.6-1.5-2198-413.8C5444.8,371.4,5156.6,94,4989.6-116c-173.2-219.2-262.1-380.1-603.9-1088.3c-438.4-912-495.1-1013.1-669.8-1189.4c-274.4-277.4-574.8-390.8-977.9-369.4c-502.7,26.1-869.1,259-1060.7,674.4c-73.6,160.9-99.6,280.5-99.6,479.8c0,331.1,85.8,538,320.3,772.5c165.5,165.5,305,248.3,516.5,309.6c104.2,30.7,154.8,35.2,366.3,33.7c226.8,0,331.1-13.8,484.3-59.8c13.8-4.6,24.5,1.5,24.5,13.8c0,10.7,134.9,254.4,298.9,539.5c165.5,286.6,321.9,557.9,347.9,605.4l49.1,87.4l-134.9,55.2c-162.5,69-421.5,139.5-625.4,170.1C3033.8,947.7,2655.2,960,2478.9,941.6z"/></g></g>
</svg>