<?xml version="1.0"?>
<svg xmlns="http://www.w3.org/2000/svg" height="512px" viewBox="0 0 447.9764 447" width="512px"><path d="m246.695312 352.015625c-86.132812 23.5625-178.214843-2.882813-238.71875-68.558594.511719 1.863281 1.007813 3.726563 1.558594 5.601563.152344.496094.289063.992187.441406 1.488281 28.640626 92.144531 112.960938 155.683594 209.429688 157.8125 16.25-29.644531 25.578125-62.582031 27.289062-96.34375zm0 0" fill="#2196f3"/><path d="m447.976562 224.488281c-.003906-37.722656-9.550781-74.832031-27.753906-107.871093-1.726562 0-3.4375.113281-5.152344.175781-34.820312 1.589843-68.800781 11.242187-99.261718 28.191406 64.445312 66.023437 85.289062 163.167969 53.597656 249.816406 49.957031-42.457031 78.695312-104.75 78.570312-170.3125zm0 0" fill="#2196f3"/><path d="m367.976562 312.488281c-.089843-59.6875-23.9375-116.882812-66.28125-158.953125-27.832031 18.351563-51.222656 42.675782-68.472656 71.203125 37.960938 69.15625 39.617188 152.53125 4.433594 223.144531 37.703125-2.1875 74.21875-13.96875 106.085938-34.234374 16.054687-31.296876 24.363281-65.988282 24.234374-101.160157zm0 0" fill="#2196f3"/><path d="m1.753906 196.546875c-.339844 2.6875-.5625 5.390625-.800781 8.085937-.167969 1.9375-.402344 3.863282-.519531 5.808594-.273438 4.378906-.417969 8.765625-.433594 13.160156v.855469.3125c0 4.230469.152344 8.511719.40625 12.800781.058594.886719.144531 1.773438.203125 2.65625.242187 3.390626.570313 6.78125.976563 10.167969 55.210937 77.816407 153.765624 111.960938 245.285156 84.972657-.789063-36.074219-10.289063-71.421876-27.695313-103.03125-39.558593-.722657-78.316406-11.253907-112.800781-30.648438-33.371094-18.800781-61.761719-45.316406-82.789062-77.335938-.800782 1.601563-1.523438 3.152344-2.273438 4.738282-1.136719 2.398437-2.257812 4.839844-3.304688 7.296875-.800781 1.855469-1.542968 3.742187-2.289062 5.597656-.964844 2.402344-1.886719 4.878906-2.765625 7.34375-.707031 2.007813-1.394531 4-2.050781 6.050781-.757813 2.398438-1.46875 4.75-2.160156 7.140625-.613282 2.144531-1.214844 4.296875-1.765626 6.464844-.59375 2.320313-1.113281 4.664063-1.601562 7.007813s-.992188 4.464843-1.414062 6.722656c-.449219 2.398437-.800782 4.796875-1.183594 7.15625-.402344 2.242187-.746094 4.449218-1.023438 6.675781zm0 0" fill="#2196f3"/><path d="m218.648438 216.402344c41.164062-67.738282 112.996093-110.902344 192.128906-115.457032-1.050782-1.601562-2.058594-3.144531-3.203125-4.726562-18.042969-25.753906-41.285157-47.433594-68.230469-63.640625-1.105469-.042969-2.222656-.089844-3.367188-.089844-98.683593.105469-185.6875 64.746094-214.273437 159.199219 30.03125 15.464844 63.175781 23.914062 96.945313 24.714844zm0 0" fill="#2196f3"/><path d="m209.230469.984375c-1.597657.105469-3.160157.328125-4.742188.464844-3.28125.289062-6.578125.558593-9.832031.992187-1.914062.253906-3.800781.632813-5.703125.9375-2.898437.460938-5.800781.886719-8.664063 1.453125-2.015624.410157-4 .9375-6.007812 1.394531-2.714844.621094-5.433594 1.199219-8.113281 1.917969-2.046875.550781-4.046875 1.214844-6.070313 1.824219-2.59375.800781-5.203125 1.511719-7.761718 2.398438-2.03125.691406-4 1.488281-6.023438 2.242187-2.503906.925781-5.015625 1.816406-7.488281 2.832031-2 .800782-4 1.757813-5.9375 2.648438-2.398438 1.070312-4.796875 2.109375-7.199219 3.261718-1.984375.96875-3.902344 2.035157-5.855469 3.058594-2.296875 1.207032-4.609375 2.398438-6.855469 3.671875-1.9375 1.101563-3.808593 2.304688-5.703124 3.453125-2.195313 1.347656-4.410157 2.65625-6.554688 4.074219-1.871094 1.230469-3.679688 2.550781-5.511719 3.832031-2.09375 1.472656-4.207031 2.925782-6.253906 4.472656-1.792969 1.351563-3.519531 2.78125-5.28125 4.191407-1.992187 1.597656-4 3.199219-5.9375 4.847656-1.71875 1.480469-3.375 3.039063-5.054687 4.566406-1.871094 1.714844-3.757813 3.417969-5.601563 5.203125-1.636719 1.597656-3.199219 3.269532-4.796875 4.933594-1.761719 1.824219-3.519531 3.640625-5.21875 5.527344-1.550781 1.730468-3.039062 3.519531-4.535156 5.296875-1.597656 1.929687-3.253906 3.847656-4.800782 5.832031-1.453124 1.847656-2.839843 3.753906-4.230468 5.648438-1.496094 2.03125-3 4.0625-4.433594 6.152343-1.335938 1.953125-2.605469 4-3.886719 5.96875-.953125 1.488281-1.894531 2.992188-2.808593 4.503907 18.660156 30.679687 44.402343 56.441406 75.074218 75.117187 28.9375-90.65625 108.695313-155.667969 203.328125-165.734375-27.457031-11.617188-56.980469-17.5625-86.792969-17.480469-4.933593 0-9.847656.167969-14.746093.496094zm0 0" fill="#2196f3"/></svg>
