<svg height="512pt" viewBox="0 0 512 512" width="512pt" xmlns="http://www.w3.org/2000/svg"><path d="m256 241c-8.269531 0-15 6.730469-15 15s6.730469 15 15 15 15-6.730469 15-15-6.730469-15-15-15zm0 0"/><path d="m371.070312 413.5c11.730469 11.71875 30.710938 11.71875 42.429688 0 11.730469-11.730469 11.71875-30.710938 0-42.429688l-51.441406-51.429687c-17-17-26.359375-39.601563-26.359375-63.640625s9.359375-46.640625 26.359375-63.640625l51.441406-51.429687c11.730469-11.730469 11.71875-30.710938 0-42.429688-11.730469-11.71875-30.699219-11.71875-42.429688 0l-51.429687 51.441406c-17 17-39.601563 26.359375-63.640625 26.359375s-46.640625-9.359375-63.640625-26.359375l-51.429687-51.441406c-11.730469-11.71875-30.710938-11.71875-42.429688 0-11.730469 11.730469-11.71875 30.710938 0 42.429688l51.441406 51.429687c17 17 26.359375 39.601563 26.359375 63.640625s-9.359375 46.640625-26.359375 63.640625l-51.441406 51.429687c-11.71875 11.730469-11.71875 30.710938 0 42.429688 11.730469 11.71875 30.699219 11.71875 42.429688 0l51.429687-51.441406c17-17 39.601563-26.359375 63.640625-26.359375s46.640625 9.359375 63.640625 26.359375zm-115.070312-112.5c-24.808594 0-45-20.191406-45-45s20.191406-45 45-45 45 20.191406 45 45-20.191406 45-45 45zm0 0"/><path d="m349.851562 77.289062c23.449219-23.429687 61.367188-23.480468 84.847657-.007812 23.460937 23.449219 23.492187 61.390625.011719 84.859375l-46.242188 46.238281c6.0625 1.082032 12.25 1.621094 18.53125 1.621094 57.898438 0 105-47.101562 105-105s-47.101562-105-105-105-105 47.101562-105 105c0 6.28125.539062 12.46875 1.621094 18.539062zm0 0"/><path d="m407 302c-6.28125 0-12.480469.539062-18.539062 1.621094l46.25 46.230468c23.460937 23.457032 23.46875 61.398438 0 84.859376-23.449219 23.449218-61.382813 23.460937-84.839844.007812l-46.25-46.25c-1.082032 6.070312-1.621094 12.25-1.621094 18.53125 0 57.898438 47.101562 105 105 105s105-47.101562 105-105-47.101562-105-105-105zm0 0"/><path d="m105 210c6.28125 0 12.480469-.539062 18.539062-1.621094l-46.25-46.230468c-23.460937-23.457032-23.46875-61.398438 0-84.859376 23.449219-23.449218 61.382813-23.460937 84.839844-.007812l46.25 46.25c1.082032-6.070312 1.621094-12.25 1.621094-18.53125 0-57.898438-47.101562-105-105-105s-105 47.101562-105 105 47.101562 105 105 105zm0 0"/><path d="m162.148438 434.710938c-23.449219 23.429687-61.367188 23.480468-84.847657.007812-23.402343-23.390625-23.402343-61.449219-.019531-84.847656l46.257812-46.25c-6.058593-1.082032-12.257812-1.621094-18.539062-1.621094-57.898438 0-105 47.101562-105 105s47.101562 105 105 105 105-47.101562 105-105c0-6.28125-.539062-12.46875-1.621094-18.539062zm0 0"/></svg>