<svg xmlns="http://www.w3.org/2000/svg" xmlns:xlink="http://www.w3.org/1999/xlink" width="500" height="500" viewBox="0 0 500 500"><defs><clipPath id="b"><rect width="500" height="500"/></clipPath></defs><g id="a" clip-path="url(#b)"><rect width="500" height="500" fill="#fff"/><path d="M139.556,5.348,18.152,59.112C7.238,63.937,0,76.344,0,90.13V245.287c0,12.545,6.012,23.987,15.467,29.57l121.4,71.685a24.052,24.052,0,0,0,25.04,0l121.4-71.685c9.514-5.583,15.467-17.094,15.467-29.57V90.13c0-13.786-7.238-26.124-18.152-30.949L159.226,5.417A23.615,23.615,0,0,0,139.556,5.348Zm9.864,42.8L261.486,97.781v.758L149.42,152.3,37.355,98.539v-.758L149.42,48.153ZM168.1,293.536V190.9l93.388-44.8v92.295Z" transform="translate(101 73.105)" fill="#82b8d9"/></g></svg>