<?xml version="1.0" encoding="iso-8859-1"?>
<!-- Generator: Adobe Illustrator 16.0.0, SVG Export Plug-In . SVG Version: 6.00 Build 0)  -->
<!DOCTYPE svg PUBLIC "-//W3C//DTD SVG 1.1//EN" "http://www.w3.org/Graphics/SVG/1.1/DTD/svg11.dtd">
<svg version="1.1" id="Capa_1" xmlns="http://www.w3.org/2000/svg" xmlns:xlink="http://www.w3.org/1999/xlink" x="0px" y="0px"
	 width="418.003px" height="418.003px" viewBox="0 0 418.003 418.003" style="enable-background:new 0 0 418.003 418.003;"
	 xml:space="preserve">
<g>
	<g>
		<path d="M54.725,134.583l0.4,2.938c5.955,7.794,19.393,23.268,42.487,39.325l4.498-1.35c7.702-19.266,21.474-47.418,32.894-63.948
			l0.06-0.09c42.868-67.104,97.886-89.132,136.49-95.794l0.426-5.807c-13.858-4.548-27.888-7.438-42.889-8.839
			C223.118,0.461,217.712,0,212.028,0c-7.538,0-14.842,0.846-22.985,2.66c-25.256,5.631-49.059,19.829-74.909,44.684
			C86.813,73.615,67.435,102.012,54.875,134.2L54.725,134.583z"/>
		<path d="M100.927,291.182c24.764,8.543,51.262,12.875,78.76,12.875h0.006c9.929,0,20.2-0.562,30.531-1.674
			c7.319-0.788,14.537-2.006,22.19-3.298l1.705-0.287l2.46-3.452c-4.704-28.188-15.674-54.277-30.886-73.468l-2.929-1.08
			c-0.888,0.175-1.771,0.347-2.544,0.493c-16.068,3.051-32.17,3.3-47.566,0.734c-48.815-8.135-88.564-33.877-118.144-76.509
			c-4.053-5.842-7.552-11.989-10.439-17.232l-5.429,0.371c-11.327,29.457-16.42,62.982-16.629,74.386l0.467,1.663
			c3.852,6.065,13.529,21.126,20.197,29.961C42.67,261.152,68.997,280.169,100.927,291.182z"/>
		<path d="M43.461,112.189c11.691-24.032,26.011-45.594,42.558-64.084l-4.065-4.378C64.955,56.814,49.902,72.79,37.216,91.209
			c-1.213,1.763-3.329,5.234-4.891,7.837l-0.051,2.998c1.895,3.417,3.88,6.899,5.901,10.349L43.461,112.189z"/>
		<path d="M128.484,163.802c-2.951,6.748-5.477,13.616-8.15,20.888l-0.602,1.637l1.771,3.851
			c19.61,7.272,40.075,11.117,59.183,11.117c6.868,0,13.574-0.49,19.932-1.459l2.391-2.007c0.289-0.857,0.579-1.708,0.836-2.455
			c5.344-15.508,13.072-29.521,22.975-41.652c31.297-38.336,73.375-60.062,125.065-64.573c4.357-0.381,8.988-0.558,14.574-0.558
			c1.852,0,3.715,0.02,5.569,0.049l2.373-4.896C354.456,59.29,327.88,38.223,318.085,32.38l-1.677-0.421
			c-7.184,0.333-25.074,1.259-36.033,2.659c-32.918,4.204-62.495,17.617-87.909,39.867
			C165.676,97.94,144.149,127.99,128.484,163.802z"/>
		<path d="M397.216,117.728c-0.92-1.933-2.87-5.501-4.345-8.154l-2.57-1.543c-3.886-0.066-7.953-0.088-11.915-0.061l-2.464,4.682
			c14.974,22.132,26.495,45.31,34.245,68.887l2.865-0.656l0.005,2.72v-2.721l2.953-0.677
			C413.148,158.939,406.832,137.918,397.216,117.728z"/>
		<path d="M187.301,402.485c-19.35,0-38.347-1.957-56.463-5.817l-1.78,5.703c19.812,8.269,41.162,13.409,63.46,15.276
			c2.126,0.18,6.193,0.291,9.231,0.355l2.628-1.444c1.385-2.282,3.561-5.918,6.06-10.27l-2.8-4.487
			C200.794,402.255,193.951,402.485,187.301,402.485z"/>
		<path d="M351.183,111.582l-0.298-0.374l-2.735-1.11c-9.728,1.265-29.846,5.174-55.292,17.154l-1.079,4.57
			c12.84,16.297,30.345,42.294,38.957,60.448l0.049,0.097c23.519,45.273,31.37,90.676,23.336,134.945
			c-1.936,10.656-4.781,21.104-8.462,31.055l4.815,3.273c10.826-9.711,20.309-20.389,28.987-32.645
			c8.078-11.405,13.736-20.039,18.587-35.512c7.744-24.689,7.34-52.401-1.272-87.212
			C387.671,169.482,372.758,138.507,351.183,111.582z"/>
		<path d="M288.73,160.512c-4.364-5.922-9.051-11.538-14.026-17.505l-1.107-1.328l-4.223-0.388
			c-21.979,18.267-38.988,40.888-47.898,63.698l0.543,3.073c0.598,0.679,1.189,1.354,1.709,1.95
			c10.765,12.379,19.041,26.077,24.6,40.715c17.569,46.266,15.363,93.569-6.559,140.602c-3.008,6.45-6.554,12.566-9.625,17.7
			l3.055,4.502c31.15-5.059,62.678-17.552,72.634-23.116l1.201-1.241c3.299-6.384,11.434-22.334,15.702-32.541
			c12.808-30.616,15.968-62.938,9.393-96.067C327.195,225.637,311.922,191.975,288.73,160.512z"/>
		<path d="M233.466,319.48c-16.689,2.354-37.62,3.816-54.622,3.816c-6.505,0-12.298-0.213-17.218-0.634l-0.108-0.007
			c-50.96-2.498-94.134-18.594-128.323-47.84c-8.228-7.037-15.817-14.76-22.559-22.953l-5.256,2.511
			c2.933,14.239,7.378,27.812,13.593,41.487c5.783,12.727,10.391,21.965,21.308,33.947c17.427,19.131,41.568,32.743,75.975,42.843
			c24.354,7.148,48.452,10.773,71.622,10.773c11.069,0,22.223-0.822,33.146-2.444l0.457-0.064l2.351-1.808
			c3.81-9.036,10.567-28.381,13.042-56.394L233.466,319.48z"/>
	</g>
</g>
<g>
</g>
<g>
</g>
<g>
</g>
<g>
</g>
<g>
</g>
<g>
</g>
<g>
</g>
<g>
</g>
<g>
</g>
<g>
</g>
<g>
</g>
<g>
</g>
<g>
</g>
<g>
</g>
<g>
</g>
</svg>
