<?xml version="1.0"?>
<svg xmlns="http://www.w3.org/2000/svg" height="512px" viewBox="0 -3 503.66171 503" width="512px"><path d="m30.171875 497.527344-30.171875-151.058594 136.355469 16.539062zm124.671875-150.683594-.3125-.042969-97.535156-11.839843 179.710937-26.625c.3125-.070313.617188-.160157.914063-.265626.3125-.082031.625-.144531.917968-.257812.511719-.199219 1.003907-.445312 1.46875-.738281.25-.15625.511719-.273438.75-.449219l.203126-.117188 114.402343-89.0625v153.820313zm170.523438-256 28.753906 104.46875-98.394532 76.5625zm129.890624 211.203125 30.867188-31.527344 17.535156 49.8125zm-81.582031 57.167969v-146.503906l44.921875 19.664062.226563.09375 55.25 24.183594zm-114.996093-358.882813 123.894531 49.554688 27.429687 158.753906-37.769531-16.527344-36.574219-132.957031c-.113281-.253906-.242187-.5-.382812-.742188-.050782-.261718-.113282-.519531-.191406-.777343-.183594-.273438-.378907-.535157-.59375-.785157-.324219-.546874-.710938-1.058593-1.152344-1.515624-.386719-.394532-.804688-.753907-1.253906-1.070313-.523438-.363281-1.085938-.667969-1.671876-.914063-.285156-.121093-.492187-.347656-.777343-.441406l-81.726563-26.148437zm-143.871094 3.015625 199.988281 64-80 208-120.0625-272.027344zm82.007812 231.222656 25.347656 57.417969-183.085937 27.152344zm0 0" fill="#2196f3"/></svg>
