<?xml version="1.0" encoding="UTF-8" standalone="no"?>
<svg xmlns="http://www.w3.org/2000/svg" version="1.1" width="120" height="120">
  <path
     d="M 32,6.5 26.38,18.16 32,22.63 32,6.5 z m 2,0 0,16.13 5.62,-4.47 L 34,6.5 z M 86,6.5 80.38,18.16 86,22.63 86,6.5 z m 2,0 0,16.13 5.62,-4.47 L 88,6.5 z M 25.09,20.85 21.06,29.22 32,38.6 l 0,-12 -6.91,-5.75 z m 15.82,0 -6.91,5.75 0,7.78 0,4.12 10.69,-9.84 -3.78,-7.81 z m 38.18,0 -3.78,7.81 10.69,9.84 0,-4.12 0,-7.78 -6.91,-5.75 z m 15.82,0 -6.91,5.75 0,12 10.9,-9.38 -3.99,-8.37 z M 45.97,31.35 34,42.5 l 0,14 16.53,-15.68 -4.56,-9.47 z m 28.06,0 -4.56,9.47 L 86,56.5 86,42.5 74.03,31.35 z M 19.78,31.88 15.19,41.41 32,56.53 32,42.56 19.78,31.88 z m 80.42,0 -12.2,10.68 0,13.97 16.8,-15.12 -4.6,-9.53 z M 51.84,43.5 34.03,60.47 c 27.95,21 10.96,46.03 -3.03,53.03 l 29,0 29,0 C 75.01,106.5 58.02,81.47 85.97,60.47 L 68.16,43.5 60,60.44 51.84,43.5 z M 13.91,44.06 6,60.44 l 25.91,0 -18,-16.38 z m 92.19,0 -18.01,16.38 25.91,0 -7.9,-16.38 z"
     id="path3821"
     style="fill:#c68f06;fill-opacity:1;stroke:none" />
</svg>
